<svg xmlns:xlink="http://www.w3.org/1999/xlink" xmlns="http://www.w3.org/2000/svg" viewBox="0 0 16 16" fill="#E6E9F0" width="16" height="16" class="icon index_icon_3aeUt mr2" style="min-width: 16px;"><defs><symbol xmlns="http://www.w3.org/2000/svg" fill="none" viewBox="0 0 16 16" id="like--sprite"><path d="M3 6a1.5 1.5 0 011.5 1.5v4a1.5 1.5 0 01-3 0v-4A1.5 1.5 0 013 6zm6.834-4c.304 0 .59.144.77.388l.082.112c.234.317.316.721.223 1.104L10.332 6h2.17a2 2 0 011.93 2.53l-.826 3A2 2 0 0111.678 13H7.5a2 2 0 01-2-2V6.806a2 2 0 01.56-1.387l2.956-3.071c.214-.222.51-.348.818-.348z" fill="#8D95A5"></path></symbol></defs><use href="#like--sprite" fill="#E6E9F0"></use></svg>